<svg id="Layer_3" data-name="Layer 3" xmlns="http://www.w3.org/2000/svg" viewBox="0 0 319.99 198.18"><defs><style>.cls-1{font-size:160px;font-family:AdobeGurmukhi-Regular, Adobe Gurmukhi;}.cls-2{font-size:36.5px;font-family:KohinoorDevanagari-Light, Kohinoor Devanagari;font-weight:300;letter-spacing:0.35em;}.cls-3{letter-spacing:0.3em;}.cls-4{fill:#008fd6;}.cls-4,.cls-5,.cls-6{fill-rule:evenodd;}.cls-5{fill:#60b993;}.cls-6{fill:#bcc900;}</style></defs><text class="cls-1" transform="translate(3.52 130.37)">j</text><text class="cls-1" transform="translate(33.33 128)">c</text><text class="cls-1" transform="translate(90.59 129.37)">b</text><rect x="41.75" y="141.09" width="262.21" height="2"/><text class="cls-2" transform="translate(43.59 179.86) scale(1.31 1)">DIGI<tspan class="cls-3" x="118.08" y="0">T</tspan><tspan x="146.29" y="0">AL</tspan></text><path class="cls-4" d="M194,73.72c-2.16,0-3,.82-3,2.82l0,32.83c0,2,1,4.56,3.47,5.32l12.15,3.68c3.66,1.1,4-1.23,4-3.8V80.43c0-4-2.87-5.26-5.08-5.5Zm.31-5.47,12.78.8c7.16.46,9.93,5.51,9.93,11.16v36.41c0,6.27-6,9.54-11.35,7.61l-14.3-5.18c-4.13-1.49-5.38-5.91-5.38-11.35V75.44c0-4.54,3.18-7.3,8.32-7.19Z" transform="translate(-12.67 8.7)"/><path class="cls-5" d="M268.09,64.18c0-10.51-4.14-15.52-15.15-15.31l-45.6.91c-5.62.12-8.93,3.59-8.93,9v9.7l4.79.3c.05-3.47-.08-7.37,0-9.89.08-2.85,2.43-3.8,4.71-3.75l21.25.5,25.46.4c3.74.06,5.88,2.36,5.88,7.7v47.6c0,3.58-1.62,4.88-5.22,4.06L217,106.78v5.08l23.53,6.69L252.66,122c7.61,2.17,15.43.65,15.43-10.47Z" transform="translate(-12.67 8.7)"/><path class="cls-6" d="M303.59,18l-75.15,8.73c-6,.69-8.42,5.33-8.42,10.13V49.53l5.68-.12V37.52c0-2.39,1.25-4.75,4-5l74.94-6.29c3.25-.27,4.36,2.08,4.36,5l.1,66.2c0,8.34-3,8.17-9.72,7.08l-31.25-5V106L296.64,112c14.52,3.09,21.15,1.26,21.15-15.11V31.27C317.79,21.27,313.58,16.88,303.59,18Z" transform="translate(-12.67 8.7)"/></svg>